<?xml version="1.0" encoding="utf-8"?>
<!-- Generator: Adobe Illustrator 16.0.4, SVG Export Plug-In . SVG Version: 6.00 Build 0)  -->
<svg version="1.1" id="Layer_1" xmlns="http://www.w3.org/2000/svg" xmlns:xlink="http://www.w3.org/1999/xlink" x="0px" y="0px" width="800px" height="800px" viewBox="0 0 800 800" enable-background="new 0 0 800 800" xml:space="preserve">
<polygon fill="#191919" points="0,0 800,0 800,327 0,361 "/>
<polygon fill="#E1E1C8" points="0,334 800,340 800,334 467,800 0,800 "/>
<polygon fill="#321900" points="0,450 369,453 266,800 0,800 "/>
<polygon fill="#190000" points="336,442 800,337 800,800 233,800 "/>
<polygon fill="#E10000" points="413,230 800,221 800,426 368,434 366,271 380,250 "/>
<polygon fill="#FAFAE1" points="436,319 476,293 520,302 543,333 548,355 546,372 555,379 566,392 567,420 404,419 403,400 413,384 429,369 425,348 "/>
<polygon fill="#FAFAE1" points="649,294 675,289 701,295 725,306 739,325 740,359 734,375 741,383 753,393 758,406 762,423 578,427 587,405 593,391 606,383 614,376 604,360 611,330 622,304 "/>
<polygon fill="#AF967D" points="329,413 800,411 800,660 262,661 "/>
<polygon fill="#967D64" points="585,413 757,411 727,438 730,461 714,484 665,498 623,496 588,478 589,456 605,439 "/>
<polygon fill="#967D64" points="407,414 567,410 534,441 534,462 521,476 498,495 443,503 396,486 379,454 399,441 "/>
<polygon fill="#967D64" points="509,547 571,545 515,607 449,581 "/>
<polygon fill="#967D64" points="265,660 800,653 800,668 269,675 "/>
<polygon fill="#FFAF64" points="519,636 526,599 485,596 "/>
<polygon fill="#FAFAE1" points="449,563 514,598 529,643 512,680 532,690 537,733 334,733 338,694 364,685 347,645 370,594 "/>
<polygon fill="#AF0000" points="499,279 492,309 471,309 471,280 477,259 488,272 498,253 "/>
<polygon fill="#AF0000" points="668,301 660,273 672,244 677,273 689,252 697,273 692,301 "/>
<polygon fill="#FFAF64" points="473,349 504,349 486,374 "/>
<polygon fill="#FFAF64" points="665,345 697,346 681,371 "/>
<polygon fill="#FF0000" points="589,474 573,546 565,549 565,489 "/>
<polygon fill="#FF0000" points="486,469 509,551 518,553 510,487 "/>
<polygon fill="#FFFFFF" points="510,492 530,498 531,557 516,553 "/>
<polygon fill="#FF0000" points="528,496 548,495 550,555 530,557 "/>
<polygon fill="#FFFFFF" points="545,496 568,493 565,547 547,555 "/>
<polygon fill="#E1E1E1" points="577,492 592,476 580,459 542,454 501,462 484,473 496,491 538,499 "/>
<polygon fill="#000000" points="450,333 464,331 475,323 468,342 "/>
<polygon fill="#000000" points="499,326 508,332 520,332 506,340 "/>
<polygon fill="#000000" points="631,329 656,333 662,315 648,323 "/>
<polygon fill="#000000" points="683,314 693,330 714,325 699,322 "/>
<polygon fill="#000000" points="509,599 503,583 496,591 486,599 "/>
<polygon fill="#C87D64" points="487,477 537,461 589,473 571,493 535,499 496,491 "/>
<polygon fill="#AF0000" points="440,559 460,579 437,588 417,576 395,571 409,565 435,569 423,557 "/>
<polygon fill="#FAFAE1" points="326,619 353,608 354,627 346,649 360,638 378,642 349,673 380,703 334,718 303,709 299,686 301,644 "/>
<polygon fill="#FA964B" points="497,473 507,459 523,462 536,490 526,498 520,485 508,488 "/>
<polygon fill="#FA964B" points="530,472 546,472 567,469 577,456 555,459 548,449 526,455 "/>
<polygon fill="#FA964B" points="539,494 552,501 557,495 564,496 566,486 558,472 531,474 "/>
<polygon fill="#FA964B" points="584,485 584,466 565,465 561,480 566,485 571,492 578,492 "/>
<polygon fill="#E1E1E1" points="335,706 336,693 365,684 346,645 370,595 377,641 414,711 "/>
<polygon fill="#E1E1C8" points="229,0 277,0 265,342 228,340 "/>
<polygon fill="#FAFAE1" points="273,0 800,0 273,18 "/>
<polygon fill="#FAFAE1" points="276,36 800,29 800,59 270,49 "/>
<polygon fill="#FAFAE1" points="271,63 800,78 800,96 270,85 "/>
<polygon fill="#FAFAE1" points="272,96 800,113 800,130 270,122 "/>
<polygon fill="#FAFAE1" points="268,131 800,140 800,154 266,152 "/>
<polygon fill="#FAFAE1" points="270,163 800,166 800,188 268,182 "/>
<polygon fill="#FAFAE1" points="0,0 231,0 0,18 "/>
<polygon fill="#FAFAE1" points="560,597 580,592 586,608 590,617 601,610 613,610 621,631 611,674 587,718 519,710 502,680 545,648 558,621 "/>
<polygon fill="#FAFAE1" points="0,41 229,14 231,36 0,52 "/>
<polygon fill="#FAFAE1" points="0,66 232,56 231,76 0,73 "/>
<polygon fill="#FAFAE1" points="0,89 233,91 229,110 0,100 "/>
<polygon fill="#FF0000" points="224,704 800,703 800,800 190,800 194,734 203,713 "/>
<polygon fill="#FAFAE1" points="0,112 232,119 231,147 0,129 "/>
<polygon fill="#FAFAE1" points="0,166 232,157 230,178 0,176 "/>
<polygon fill="#967D64" points="738,560 786,589 745,635 714,626 "/>
<polygon fill="#FAFAE1" points="0,191 232,191 231,213 0,203 "/>
<polygon fill="#321900" points="773,495 792,546 783,558 787,592 775,595 768,579 745,612 734,560 "/>
<polygon fill="#AFAF96" points="771,504 787,546 746,603 737,559 "/>
<polygon fill="#FAFAE1" points="778,547 767,524 751,544 751,555 741,559 739,568 749,592 759,574 771,565 "/>
<polygon fill="#AF0000" points="775,525 779,531 771,542 770,534 "/>
<polygon fill="#000000" points="759,535 767,542 767,533 "/>
<polygon fill="#967D64" points="714,604 645,566 624,597 655,628 690,622 "/>
<polygon fill="#000000" points="768,546 773,541 774,553 "/>
<polygon fill="#FAFAFA" points="645,553 678,550 712,558 720,581 717,605 705,607 696,615 656,612 642,602 631,595 631,572 "/>
<polygon fill="#FFAF64" points="756,544 767,556 756,555 "/>
<polygon fill="#E1E1E1" points="700,590 668,569 645,591 659,604 672,595 681,600 "/>
<polygon fill="#FA964B" points="704,588 690,580 678,566 663,562 647,585 662,598 676,589 687,598 "/>
<polygon fill="#E10000" points="0,220 80,232 98,249 100,282 71,502 43,565 0,561 0,500 "/>
<polygon fill="#AF0000" points="0,400 40,426 35,500 24,515 19,562 0,560 "/>
<polygon fill="#967D64" points="31,418 31,453 0,568 0,543 "/>
<polygon fill="#AF967D" points="0,415 32,421 0,546 "/>
</svg>
